<svg xmlns="http://www.w3.org/2000/svg" viewBox="0 0 24 24">
  <!-- Material Icons Rounded: volume_off -->
  <path d="M16.5,12c0,-1.77 -1,-3.29 -2.5,-4.03v2.21l2.45,2.45c0.03,-0.2 0.05,-0.41 0.05,-0.63zM19,12c0,0.94 -0.2,1.82 -0.54,2.64l1.51,1.51C20.62,14.91 21,13.5 21,12c0,-4.28 -2.99,-7.86 -7,-8.77v2.06c2.89,0.86 5,3.54 5,6.71zM4.27,3L3,4.27 7.73,9H4c-0.55,0 -1,0.45 -1,1v4c0,0.55 0.45,1 1,1h3l3.29,3.29c0.63,0.63 1.71,0.18 1.71,-0.71v-4.73l4.25,4.25c-0.67,0.52 -1.42,0.93 -2.25,1.18v2.06c1.38,-0.31 2.63,-0.95 3.69,-1.81L19.73,21 21,19.73 4.27,3zM12,5.41c0,-0.89 -1.08,-1.34 -1.71,-0.71l-0.41,0.41L12,7.23V5.41z"/>
</svg>
